<?xml version="1.0" encoding="UTF-8" standalone="no"?>
<svg
   width="358.733"
   zoomAndPan="magnify"
   viewBox="0 0 269.04975 86.999998"
   height="116"
   preserveAspectRatio="xMidYMid"
   version="1.2"
   id="svg20"
   sodipodi:docname="Logotipo Marketing Digital Moderno Azul e Amarelo (2).svg"
   inkscape:version="1.4 (86a8ad7, 2024-10-11)"
   xmlns:inkscape="http://www.inkscape.org/namespaces/inkscape"
   xmlns:sodipodi="http://sodipodi.sourceforge.net/DTD/sodipodi-0.dtd"
   xmlns="http://www.w3.org/2000/svg"
   xmlns:svg="http://www.w3.org/2000/svg">
  <sodipodi:namedview
     id="namedview20"
     pagecolor="#ffffff"
     bordercolor="#000000"
     borderopacity="0.25"
     inkscape:showpageshadow="2"
     inkscape:pageopacity="0.0"
     inkscape:pagecheckerboard="0"
     inkscape:deskcolor="#d1d1d1"
     inkscape:zoom="1.614"
     inkscape:cx="171.6233"
     inkscape:cy="74.039653"
     inkscape:window-width="1920"
     inkscape:window-height="1009"
     inkscape:window-x="1912"
     inkscape:window-y="-7"
     inkscape:window-maximized="1"
     inkscape:current-layer="svg20" />
  <defs
     id="defs1">
    <clipPath
       id="e75cd45f93">
      <path
         d="m 171.47656,131.8125 h 78.75 v 87 h -78.75 z m 0,0"
         id="path1" />
    </clipPath>
  </defs>
  <g
     id="4450b5233e"
     transform="translate(-43.562502,-131.8125)">
    <g
       clip-rule="nonzero"
       clip-path="url(#e75cd45f93)"
       id="g2">
      <path
         style="fill:#bfbfbf;fill-opacity:1;fill-rule:evenodd;stroke:none"
         d="m 210.85547,218.8125 c -21.70703,0 -39.32813,-17.66016 -39.32813,-39.42188 0,-10.83593 4.39063,-20.63671 11.46094,-27.76171 l 0.0312,0.0312 c 1.42969,-1.97657 3.73828,-3.27344 6.35938,-3.27344 4.34375,0 7.87109,3.52734 7.87109,7.8789 0,2.67188 -1.33203,5.02344 -3.35938,6.44922 l 0.0273,0.0273 c -4.2461,4.28906 -6.90625,10.14453 -6.90625,16.64843 0,13.11719 10.67187,23.76954 23.82031,23.76954 13.14844,0 23.81641,-10.65235 23.81641,-23.76954 0,-5.93359 -2.22657,-11.3164 -5.84375,-15.47656 -2.14844,-1.40625 -3.58203,-3.83203 -3.58203,-6.59375 0,-4.35547 3.52343,-7.89062 7.86718,-7.89062 2.1211,0 4.03907,0.85937 5.45313,2.23047 l 0.11328,-0.10938 c 7.10937,7.12891 11.51953,16.96484 11.51953,27.83984 0,21.75782 -17.61328,39.42188 -39.32031,39.42188 z m -0.004,-39.14844 c -4.35937,0 -7.86328,-3.57812 -7.86328,-8.02734 v -31.79688 c 0,-4.44922 3.50391,-8.02734 7.86328,-8.02734 4.35547,0 7.86719,3.57812 7.86719,8.02734 v 31.79688 c 0,4.44922 -3.51172,8.02734 -7.86719,8.02734 z m 0,0"
         id="path2" />
    </g>
    <g
       style="fill:#ffffff;fill-opacity:1"
       id="g4">
      <g
         transform="translate(37.500002,214.72763)"
         id="g3">
        <path
           style="stroke:none"
           d="M 22.8125,-12.921875 H 44.734375 V 0 H 6.0625 v -68.703125 h 16.75 z m 0,0"
           id="path3" />
      </g>
    </g>
    <g
       style="fill:#ffffff;fill-opacity:1"
       id="g6">
      <g
         transform="translate(80.95173,214.72763)"
         id="g5">
        <path
           style="stroke:none"
           d="m 14.484375,-60.296875 c -2.9375,0 -5.339844,-0.863281 -7.203125,-2.59375 C 5.425781,-64.617188 4.5,-66.753906 4.5,-69.296875 c 0,-2.601563 0.925781,-4.769531 2.78125,-6.5 1.863281,-1.726563 4.265625,-2.59375 7.203125,-2.59375 2.875,0 5.238281,0.867187 7.09375,2.59375 1.863281,1.730469 2.796875,3.898437 2.796875,6.5 0,2.542969 -0.933594,4.679687 -2.796875,6.40625 -1.855469,1.730469 -4.21875,2.59375 -7.09375,2.59375 z m 8.328125,5.6875 V 0 h -16.75 v -54.609375 z m 0,0"
           id="path4" />
      </g>
    </g>
    <g
       style="fill:#ffffff;fill-opacity:1"
       id="g8">
      <g
         transform="translate(106.59177,214.72763)"
         id="g7">
        <path
           style="stroke:none"
           d="m 30.640625,-15.65625 11.84375,-38.953125 h 17.8125 L 40.90625,0 H 20.265625 L 0.875,-54.609375 h 17.921875 z m 0,0"
           id="path6" />
      </g>
    </g>
    <g
       style="fill:#ffffff;fill-opacity:1"
       id="g10">
      <g
         transform="translate(164.62901,214.72763)"
         id="g9">
        <path
           style="stroke:none"
           d=""
           id="path8" />
      </g>
    </g>
    <g
       style="fill:#ffffff;fill-opacity:1"
       id="g12">
      <g
         transform="translate(182.14613,214.72763)"
         id="g11">
        <path
           style="stroke:none"
           d=""
           id="path10" />
      </g>
    </g>
    <g
       style="fill:#ffffff;fill-opacity:1"
       id="g14">
      <g
         transform="translate(199.66324,214.72763)"
         id="g13">
        <path
           style="stroke:none"
           d=""
           id="path12" />
      </g>
    </g>
    <g
       style="fill:#ffffff;fill-opacity:1"
       id="g16">
      <g
         transform="translate(217.18036,214.72763)"
         id="g15">
        <path
           style="stroke:none"
           d=""
           id="path14" />
      </g>
    </g>
    <g
       style="fill:#ffffff;fill-opacity:1"
       id="g18">
      <g
         transform="translate(234.69747,214.72763)"
         id="g17">
        <path
           style="stroke:none"
           d=""
           id="path16" />
      </g>
    </g>
    <g
       style="fill:#ffffff;fill-opacity:1"
       id="g20">
      <g
         transform="translate(252.22163,214.72763)"
         id="g19">
        <path
           style="stroke:none"
           d="m 39.34375,-55.203125 c 6.394531,0 11.5,2.074219 15.3125,6.21875 3.820312,4.148437 5.734375,9.839844 5.734375,17.078125 V 0 H 43.75 v -29.65625 c 0,-3.65625 -0.949219,-6.492188 -2.84375,-8.515625 -1.886719,-2.019531 -4.429688,-3.03125 -7.625,-3.03125 -3.199219,0 -5.746094,1.011719 -7.640625,3.03125 -1.886719,2.023437 -2.828125,4.859375 -2.828125,8.515625 V 0 h -16.75 v -54.609375 h 16.75 V -47.375 c 1.6875,-2.414062 3.96875,-4.320312 6.84375,-5.71875 2.875,-1.40625 6.101562,-2.109375 9.6875,-2.109375 z m 0,0"
           id="path18" />
      </g>
    </g>
  </g>
</svg>
